<svg width="100" height="63" viewBox="0 0 100 63" fill="none" xmlns="http://www.w3.org/2000/svg">
<path d="M53.4387 8.40357L54.9467 0.0688477C80.1407 0.759831 99.8054 6.57096 99.8054 13.6396C99.8054 15.0988 98.9561 16.5065 97.4047 17.8241C91.286 12.631 74.1 8.79842 53.4387 8.40357ZM99.8054 49.2832C99.8054 47.824 98.9561 46.4163 97.4047 45.0987C90.9394 50.5836 72.1241 54.5536 49.9027 54.5536C48.2821 54.5536 46.6874 54.5321 45.1057 54.4892L43.6021 62.811C45.6691 62.884 47.7664 62.9226 49.9027 62.9226C77.4627 62.9183 99.8054 56.8153 99.8054 49.2832ZM85.8477 31.4593C94.4841 29.0086 99.8054 25.6782 99.8054 22.0044C99.8054 20.5451 98.9561 19.1374 97.4047 17.8198C90.9524 23.2962 72.1934 27.2576 50.0284 27.2747L48.516 35.6309C48.9797 35.6352 49.4391 35.6395 49.9027 35.6395C72.1197 35.6395 90.9394 39.6094 97.4047 45.0944C98.9604 43.7768 99.8054 42.3691 99.8054 40.9098C99.8054 37.2403 94.4884 33.9099 85.8477 31.4593Z" fill="#04A797"/>
<path d="M54.9467 0.0686692L53.4387 8.40339C52.2687 8.38193 51.09 8.36906 49.9027 8.36906C27.6857 8.36906 8.866 12.339 2.40067 17.8239C0.849333 16.5021 0 15.0986 0 13.6394C0 6.10727 22.3427 0 49.9027 0C51.6057 0 53.287 0.0257509 54.9467 0.0686692ZM0 49.283C0 56.2315 19.019 61.9611 43.602 62.8109L45.1057 54.489C25.0077 53.9654 8.39367 50.1843 2.40067 45.0985C0.849333 46.4161 0 47.8195 0 49.283ZM2.40067 17.8197C0.849333 19.1415 0 20.545 0 22.0042C0 25.678 5.32133 29.0084 13.9577 31.4591C5.32133 33.9097 0 37.2402 0 40.914C0 42.3732 0.849333 43.7809 2.40067 45.0985C8.72733 39.7294 26.9013 35.8153 48.5117 35.6522L50.024 27.2788C49.9807 27.2788 49.9417 27.2788 49.8983 27.2788C27.6857 27.2745 8.866 23.3046 2.40067 17.8197Z" fill="#7C37A0"/>
</svg>
